# xmcd CD database file
#
# Track frame offsets:
#	150
#	13492
#	26890
#	39259
#	50472
#	63165
#	76419
#	89335
#	102986
#	115795
#	129707
#	142342
#	154012
#	168493
#	182788
#	194857
#	205980
#	219220
#	233426
#	248251
#	261489
#	274128
#	287414
#
# Disc length: 4010 seconds
#
# Revision: 0
# Processed by: cddbd v1.4PL0 Copyright (c) Steve Scherf et al.
# Submitted via: CDex 1.50Beta7
#
DISCID=500fa817
DTITLE=Bobby Sherwood - Issued Recordings
DYEAR=1900
DGENRE=Jazz
TTITLE0=Elk's Parade
TTITLE1=Moonlight Becomes You
TTITLE2=Harlem Butterfly
TTITLE3=Swingin' at the Semloh
TTITLE4=Arkansas
TTITLE5=King Cotton
TTITLE6=More of the Same
TTITLE7=Bob's Mob
TTITLE8=Bombardier
TTITLE9=Caravan
TTITLE10=Poor Little Rich Girl
TTITLE11=New World Jump
TTITLE12=Makin' Whoopee
TTITLE13=In The Dark
TTITLE14=Walkin' and Talkin"
TTITLE15=Snap Your Fingers
TTITLE16=Cottontail
TTITLE17=Theme for a Dream
TTITLE18=Sherwood's Forest
TTITLE19=T-Bone for Two
TTITLE20=Floatin'
TTITLE21=Let's Eat
TTITLE22=Bugle Call Rag
EXTD=
EXTT0=
EXTT1=
EXTT2=
EXTT3=
EXTT4=
EXTT5=
EXTT6=
EXTT7=
EXTT8=
EXTT9=
EXTT10=
EXTT11=
EXTT12=
EXTT13=
EXTT14=
EXTT15=
EXTT16=
EXTT17=
EXTT18=
EXTT19=
EXTT20=
EXTT21=
EXTT22=
PLAYORDER=
